<mxfile host="Electron" agent="Mozilla/5.0 (Windows NT 10.0; Win64; x64) AppleWebKit/537.36 (KHTML, like Gecko) draw.io/26.1.1 Chrome/132.0.6834.210 Electron/34.3.3 Safari/537.36" version="26.1.1">
  <diagram name="Page-1" id="RnOPjS3uH1CtqrLJ_KjT">
    <mxGraphModel dx="819" dy="482" grid="1" gridSize="10" guides="1" tooltips="1" connect="1" arrows="1" fold="1" page="1" pageScale="1" pageWidth="850" pageHeight="1100" math="0" shadow="0">
      <root>
        <mxCell id="0" />
        <mxCell id="1" parent="0" />
        <mxCell id="fORQgfrR71k1jUgBXoc8-1" value="" style="rounded=0;whiteSpace=wrap;html=1;" parent="1" vertex="1">
          <mxGeometry x="70" y="40" width="710" height="650" as="geometry" />
        </mxCell>
        <mxCell id="fORQgfrR71k1jUgBXoc8-2" value="NETWORK VISUALIZER" style="rounded=0;whiteSpace=wrap;html=1;" parent="1" vertex="1">
          <mxGeometry x="212.5" y="220" width="425" height="60" as="geometry" />
        </mxCell>
        <mxCell id="fORQgfrR71k1jUgBXoc8-3" value="" style="rounded=0;whiteSpace=wrap;html=1;" parent="1" vertex="1">
          <mxGeometry x="210" y="290" width="430" height="260" as="geometry" />
        </mxCell>
        <mxCell id="fORQgfrR71k1jUgBXoc8-6" value="Upload graph" style="rounded=0;whiteSpace=wrap;html=1;" parent="1" vertex="1">
          <mxGeometry x="312.5" y="300" width="225" height="50" as="geometry" />
        </mxCell>
        <mxCell id="fORQgfrR71k1jUgBXoc8-7" value="Cytoscape" style="rounded=0;whiteSpace=wrap;html=1;" parent="1" vertex="1">
          <mxGeometry x="312.5" y="360" width="70" height="30" as="geometry" />
        </mxCell>
        <mxCell id="fORQgfrR71k1jUgBXoc8-9" value="CSV" style="rounded=0;whiteSpace=wrap;html=1;" parent="1" vertex="1">
          <mxGeometry x="390" y="360" width="70" height="30" as="geometry" />
        </mxCell>
        <mxCell id="fORQgfrR71k1jUgBXoc8-10" value="Excel" style="rounded=0;whiteSpace=wrap;html=1;" parent="1" vertex="1">
          <mxGeometry x="467.5" y="360" width="70" height="30" as="geometry" />
        </mxCell>
        <mxCell id="fORQgfrR71k1jUgBXoc8-11" value="" style="rounded=0;whiteSpace=wrap;html=1;" parent="1" vertex="1">
          <mxGeometry x="310" y="400" width="230" height="60" as="geometry" />
        </mxCell>
        <mxCell id="fORQgfrR71k1jUgBXoc8-12" value="UPLOAD" style="rounded=1;whiteSpace=wrap;html=1;" parent="1" vertex="1">
          <mxGeometry x="310" y="470" width="230" height="30" as="geometry" />
        </mxCell>
        <mxCell id="F2xdF--dxHcku7Tdmpaf-10" value="" style="rounded=0;whiteSpace=wrap;html=1;" vertex="1" parent="1">
          <mxGeometry x="70" y="730" width="710" height="650" as="geometry" />
        </mxCell>
        <mxCell id="F2xdF--dxHcku7Tdmpaf-11" value="NETWORK VISUALIZER" style="rounded=0;whiteSpace=wrap;html=1;" vertex="1" parent="1">
          <mxGeometry x="212.5" y="910" width="425" height="60" as="geometry" />
        </mxCell>
        <mxCell id="F2xdF--dxHcku7Tdmpaf-12" value="" style="rounded=0;whiteSpace=wrap;html=1;" vertex="1" parent="1">
          <mxGeometry x="210.5" y="980" width="430" height="260" as="geometry" />
        </mxCell>
        <mxCell id="F2xdF--dxHcku7Tdmpaf-13" value="Filters" style="rounded=0;whiteSpace=wrap;html=1;" vertex="1" parent="1">
          <mxGeometry x="312.5" y="990" width="225" height="50" as="geometry" />
        </mxCell>
        <mxCell id="F2xdF--dxHcku7Tdmpaf-19" value="" style="rounded=0;whiteSpace=wrap;html=1;" vertex="1" parent="1">
          <mxGeometry x="313" y="1050" width="225" height="160" as="geometry" />
        </mxCell>
        <mxCell id="F2xdF--dxHcku7Tdmpaf-22" value="Name" style="rounded=0;whiteSpace=wrap;html=1;" vertex="1" parent="1">
          <mxGeometry x="353" y="1060" width="80" height="20" as="geometry" />
        </mxCell>
        <mxCell id="F2xdF--dxHcku7Tdmpaf-25" value="s" style="rounded=0;whiteSpace=wrap;html=1;" vertex="1" parent="1">
          <mxGeometry x="333" y="1060" width="20" height="20" as="geometry" />
        </mxCell>
        <mxCell id="F2xdF--dxHcku7Tdmpaf-28" value="type" style="rounded=0;whiteSpace=wrap;html=1;" vertex="1" parent="1">
          <mxGeometry x="433" y="1060" width="42.5" height="20" as="geometry" />
        </mxCell>
        <mxCell id="F2xdF--dxHcku7Tdmpaf-29" value="values" style="rounded=0;whiteSpace=wrap;html=1;" vertex="1" parent="1">
          <mxGeometry x="475.5" y="1060" width="42.5" height="20" as="geometry" />
        </mxCell>
        <mxCell id="F2xdF--dxHcku7Tdmpaf-30" value="" style="rounded=0;whiteSpace=wrap;html=1;" vertex="1" parent="1">
          <mxGeometry x="353" y="1080" width="80" height="20" as="geometry" />
        </mxCell>
        <mxCell id="F2xdF--dxHcku7Tdmpaf-31" value="" style="rounded=0;whiteSpace=wrap;html=1;" vertex="1" parent="1">
          <mxGeometry x="333" y="1080" width="20" height="20" as="geometry" />
        </mxCell>
        <mxCell id="F2xdF--dxHcku7Tdmpaf-32" value="" style="rounded=0;whiteSpace=wrap;html=1;" vertex="1" parent="1">
          <mxGeometry x="433" y="1080" width="42.5" height="20" as="geometry" />
        </mxCell>
        <mxCell id="F2xdF--dxHcku7Tdmpaf-33" value="" style="rounded=0;whiteSpace=wrap;html=1;" vertex="1" parent="1">
          <mxGeometry x="475.5" y="1080" width="42.5" height="20" as="geometry" />
        </mxCell>
        <mxCell id="F2xdF--dxHcku7Tdmpaf-34" value="" style="rounded=0;whiteSpace=wrap;html=1;" vertex="1" parent="1">
          <mxGeometry x="353" y="1100" width="80" height="20" as="geometry" />
        </mxCell>
        <mxCell id="F2xdF--dxHcku7Tdmpaf-35" value="" style="rounded=0;whiteSpace=wrap;html=1;" vertex="1" parent="1">
          <mxGeometry x="333" y="1100" width="20" height="20" as="geometry" />
        </mxCell>
        <mxCell id="F2xdF--dxHcku7Tdmpaf-36" value="" style="rounded=0;whiteSpace=wrap;html=1;" vertex="1" parent="1">
          <mxGeometry x="433" y="1100" width="42.5" height="20" as="geometry" />
        </mxCell>
        <mxCell id="F2xdF--dxHcku7Tdmpaf-37" value="" style="rounded=0;whiteSpace=wrap;html=1;" vertex="1" parent="1">
          <mxGeometry x="475.5" y="1100" width="42.5" height="20" as="geometry" />
        </mxCell>
        <mxCell id="F2xdF--dxHcku7Tdmpaf-38" value="" style="rounded=0;whiteSpace=wrap;html=1;" vertex="1" parent="1">
          <mxGeometry x="353" y="1120" width="80" height="20" as="geometry" />
        </mxCell>
        <mxCell id="F2xdF--dxHcku7Tdmpaf-39" value="" style="rounded=0;whiteSpace=wrap;html=1;" vertex="1" parent="1">
          <mxGeometry x="333" y="1120" width="20" height="20" as="geometry" />
        </mxCell>
        <mxCell id="F2xdF--dxHcku7Tdmpaf-40" value="" style="rounded=0;whiteSpace=wrap;html=1;" vertex="1" parent="1">
          <mxGeometry x="433" y="1120" width="42.5" height="20" as="geometry" />
        </mxCell>
        <mxCell id="F2xdF--dxHcku7Tdmpaf-41" value="" style="rounded=0;whiteSpace=wrap;html=1;" vertex="1" parent="1">
          <mxGeometry x="475.5" y="1120" width="42.5" height="20" as="geometry" />
        </mxCell>
        <mxCell id="F2xdF--dxHcku7Tdmpaf-42" value="OK" style="rounded=0;whiteSpace=wrap;html=1;" vertex="1" parent="1">
          <mxGeometry x="467.5" y="1180" width="60" height="20" as="geometry" />
        </mxCell>
      </root>
    </mxGraphModel>
  </diagram>
</mxfile>
